# xmcd
#
# Track frame offsets: 
#        150
#        14426
#        28086
#        41221
#
# Disc length: 720 seconds
#
# Revision: 0
# Processed by: cddbd v1.5.2PL0 Copyright (c) Steve Scherf et al.
# Submitted via: ExactAudioCopy v0.99pb4
#
DISCID=2e02ce04
DTITLE=Dana and Lauren - Dana and Lauren
DYEAR=2011
DGENRE=Bluegrass
TTITLE0=Chasing Trains
TTITLE1=California Love
TTITLE2=Song To My Heart
TTITLE3=Dreams Are Fireflies
EXTD=
EXTT0=
EXTT1=
EXTT2=
EXTT3=
PLAYORDER=
